<svg width="20" height="13" viewBox="0 0 20 13" fill="none" xmlns="http://www.w3.org/2000/svg">
<path d="M6.66671 9.13333L16.5 1.26666C16.8056 1.02222 17.1945 0.899994 17.6667 0.899994C18.1389 0.899994 18.5278 1.02222 18.8334 1.26666C19.1389 1.5111 19.2917 1.82222 19.2917 2.19999C19.2917 2.57777 19.1389 2.88888 18.8334 3.13333L7.83337 11.9333C7.50004 12.2 7.11115 12.3333 6.66671 12.3333C6.22226 12.3333 5.83337 12.2 5.50004 11.9333L1.16671 8.46666C0.861151 8.22222 0.708374 7.9111 0.708374 7.53333C0.708374 7.15555 0.861151 6.84444 1.16671 6.59999C1.47226 6.35555 1.86115 6.23333 2.33337 6.23333C2.8056 6.23333 3.19449 6.35555 3.50004 6.59999L6.66671 9.13333Z" fill="black"/>
</svg>
