<svg width="24" height="25" viewBox="0 0 24 25" fill="none" xmlns="http://www.w3.org/2000/svg">
<path d="M0.5 25V8.33333H4.8125V5.95238C4.8125 4.30556 5.51352 2.90159 6.91556 1.74048C8.31665 0.580159 10.0115 0 12 0C13.9885 0 15.6838 0.580159 17.0859 1.74048C18.487 2.90159 19.1875 4.30556 19.1875 5.95238V8.33333H23.5V25H0.5ZM7.6875 8.33333H16.3125V5.95238C16.3125 4.96032 15.8932 4.11706 15.0547 3.42262C14.2161 2.72817 13.1979 2.38095 12 2.38095C10.8021 2.38095 9.78386 2.72817 8.94531 3.42262C8.10677 4.11706 7.6875 4.96032 7.6875 5.95238V8.33333Z" fill="black"/>
</svg>
